<svg version="1.0" xmlns="http://www.w3.org/2000/svg"
 width="400.000000pt" height="440.000000pt" viewBox="0 0 400.000000 440.000000"
 preserveAspectRatio="xMidYMid meet">
<g transform="translate(0.000000,440.000000) scale(0.100000,-0.100000)"
fill="#000000" stroke="none">
<path d="M3660 4370 c-17 -16 -35 -30 -40 -30 -6 0 -10 -5 -10 -11 0 -5 -4 -7
-10 -4 -5 3 -10 0 -10 -8 0 -8 -9 -22 -20 -32 -11 -10 -20 -15 -20 -11 0 4
-12 -6 -26 -23 -14 -17 -31 -28 -36 -24 -6 3 -8 1 -5 -4 8 -12 -17 -36 -26
-26 -4 3 -7 2 -7 -4 0 -5 -19 -23 -42 -40 -24 -17 -54 -40 -68 -52 -14 -11
-30 -25 -36 -29 -5 -5 -21 -15 -35 -22 -13 -7 -31 -21 -40 -31 -9 -10 -19 -16
-23 -12 -3 3 -6 1 -6 -5 0 -6 -14 -21 -32 -33 -17 -13 -28 -18 -24 -11 4 7 2
12 -3 12 -6 0 -11 -7 -11 -15 0 -9 -6 -12 -15 -9 -11 5 -13 2 -9 -10 3 -9 1
-16 -5 -16 -6 0 -13 0 -16 0 -3 0 -14 -9 -25 -20 -12 -12 -26 -18 -32 -14 -6
4 -8 3 -5 -2 6 -10 -91 -71 -105 -66 -5 1 -8 -2 -8 -7 0 -5 -26 -24 -57 -42
-32 -18 -60 -36 -61 -41 -2 -4 -8 -6 -13 -2 -5 3 -12 -2 -15 -10 -3 -9 -10
-13 -15 -10 -5 3 -9 0 -9 -6 0 -6 -5 -8 -10 -5 -6 3 -13 0 -16 -9 -3 -8 -14
-13 -25 -11 -12 2 -19 -2 -19 -11 0 -8 -4 -13 -9 -10 -5 3 -11 0 -14 -8 -4 -9
-14 -12 -27 -9 -14 4 -20 1 -18 -8 2 -9 -6 -14 -19 -14 -11 0 -25 -4 -30 -9
-4 -5 -3 -6 5 -2 6 4 12 5 12 2 0 -3 -10 -10 -21 -17 -15 -7 -19 -8 -15 0 5 7
1 9 -8 5 -9 -3 -13 -10 -10 -15 5 -8 -3 -11 -22 -8 -4 0 -10 -4 -13 -9 -8 -13
-191 -112 -191 -104 0 4 -4 2 -8 -5 -4 -6 -14 -13 -22 -15 -8 -2 -21 -9 -28
-16 -8 -7 -18 -10 -23 -7 -5 4 -9 -1 -9 -10 0 -9 -4 -14 -9 -10 -5 3 -17 -2
-25 -11 -9 -8 -16 -12 -16 -8 0 4 -7 -1 -16 -12 -8 -10 -13 -13 -9 -7 4 8 1
11 -9 7 -8 -3 -17 -12 -20 -20 -3 -9 -10 -12 -16 -9 -5 3 -10 2 -10 -4 0 -6
-6 -8 -14 -5 -8 3 -23 -3 -33 -13 -11 -11 -24 -18 -30 -16 -7 3 -17 -5 -23
-17 -6 -11 -16 -18 -21 -14 -6 3 -17 -2 -24 -12 -8 -11 -15 -14 -15 -9 0 6 -3
6 -8 -1 -10 -15 -122 -77 -122 -68 0 4 -7 -1 -15 -12 -8 -10 -15 -15 -15 -11
0 4 -20 -6 -44 -22 -24 -17 -46 -27 -50 -24 -3 4 -6 -1 -6 -11 0 -9 -5 -14
-10 -11 -6 3 -13 -1 -16 -9 -3 -9 -10 -13 -16 -10 -5 3 -16 -2 -23 -12 -8 -11
-15 -16 -15 -11 0 4 -9 -2 -20 -13 -11 -11 -26 -17 -34 -14 -8 3 -17 0 -22 -7
-5 -8 -3 -10 7 -4 12 8 12 6 0 -8 -8 -10 -16 -15 -19 -12 -3 2 -10 -1 -16 -9
-18 -22 -180 -141 -188 -138 -5 1 -8 -2 -8 -8 0 -12 -40 -54 -40 -42 -1 4 -8
-6 -16 -21 -8 -15 -19 -25 -24 -22 -6 4 -10 1 -10 -5 0 -6 -4 -9 -9 -6 -5 3
-8 -2 -7 -12 0 -10 -5 -16 -15 -14 -9 1 -16 -4 -16 -11 0 -17 -101 -147 -115
-147 -5 0 -6 -5 -3 -10 8 -13 -14 -42 -26 -35 -4 3 -6 -3 -4 -14 2 -11 -3 -25
-11 -32 -8 -6 -14 -18 -14 -25 0 -8 -4 -14 -10 -14 -5 0 -9 -3 -8 -7 1 -5 -8
-27 -20 -49 -11 -23 -18 -44 -15 -48 4 -3 1 -6 -6 -6 -7 0 -9 -4 -6 -10 3 -5
1 -10 -5 -10 -6 0 -9 -4 -6 -9 3 -4 -3 -24 -13 -43 -9 -20 -17 -45 -16 -56 1
-12 -2 -19 -6 -16 -5 3 -8 -8 -7 -23 0 -15 -2 -39 -5 -53 -30 -137 -34 -294
-10 -445 8 -49 14 -107 15 -127 0 -23 5 -35 11 -31 6 4 8 0 4 -11 -4 -10 0
-46 9 -79 9 -34 17 -70 16 -79 0 -10 3 -18 8 -18 5 0 7 -7 4 -15 -4 -8 -1 -15
6 -15 6 0 9 -4 6 -9 -3 -5 1 -25 9 -45 8 -19 14 -39 13 -43 0 -5 1 -15 5 -23
10 -27 41 -125 42 -135 1 -5 8 -26 15 -45 8 -19 13 -38 12 -42 -1 -5 3 -8 9
-8 6 0 8 -7 5 -16 -3 -8 -2 -12 4 -9 6 3 11 -3 11 -14 2 -29 3 -34 15 -55 11
-18 12 -18 35 -1 13 10 33 32 45 49 11 17 26 30 33 28 7 -1 10 2 6 8 -7 11 84
132 95 125 4 -2 7 2 7 9 0 21 234 316 246 309 5 -3 7 -1 3 5 -3 6 1 17 9 25 8
9 15 19 15 23 0 8 105 147 130 172 8 9 16 23 17 31 5 29 23 294 28 410 3 63 7
117 10 119 6 6 9 -39 6 -85 -2 -19 2 -33 9 -33 6 0 8 -5 5 -10 -6 -9 9 -131
22 -185 3 -11 6 -28 7 -38 2 -18 23 -44 29 -36 2 2 16 21 31 41 16 21 33 35
39 31 6 -4 7 -1 3 6 -10 15 23 53 37 44 6 -3 7 -1 3 5 -9 14 83 134 97 125 6
-3 7 -2 4 4 -8 13 22 55 34 48 5 -3 6 2 2 11 -5 13 -3 15 7 9 9 -5 11 -4 6 4
-10 15 13 43 27 34 6 -3 7 -1 3 6 -5 7 28 57 82 124 134 168 124 143 126 322
0 85 4 155 9 155 8 0 11 -21 8 -72 -2 -21 1 -38 6 -38 4 0 8 -16 9 -36 0 -23
8 -43 24 -57 12 -12 20 -17 16 -11 -7 14 18 37 29 26 5 -4 5 -2 2 5 -4 6 8 29
25 50 18 22 51 65 72 96 21 31 43 54 49 50 6 -3 7 -1 3 6 -10 15 13 43 27 34
6 -3 7 -1 3 5 -9 14 164 233 177 225 6 -4 7 -1 3 6 -10 15 23 53 37 44 6 -3 7
-1 3 6 -9 14 12 43 25 35 5 -3 7 1 4 8 -3 7 19 40 49 73 31 33 55 54 56 48 0
-7 -5 -13 -11 -13 -5 0 -8 -3 -6 -7 2 -5 -4 -21 -14 -38 -10 -16 -23 -40 -29
-53 -5 -12 -16 -25 -24 -28 -8 -3 -13 -11 -10 -18 3 -7 -4 -21 -16 -31 -11
-10 -20 -23 -20 -30 0 -7 -9 -20 -20 -30 -11 -10 -20 -24 -20 -30 0 -7 -7 -19
-16 -26 -9 -7 -20 -24 -25 -37 -5 -14 -14 -20 -21 -16 -6 4 -8 3 -5 -3 8 -13
-52 -95 -64 -88 -5 4 -6 -1 -3 -9 3 -9 1 -16 -6 -16 -6 0 -9 -4 -5 -9 3 -5 1
-12 -4 -16 -6 -3 -7 -13 -4 -22 5 -13 18 -15 80 -9 44 3 73 2 73 -4 0 -5 -7
-6 -17 -3 -10 4 -14 2 -10 -4 5 -7 -1 -9 -15 -5 -13 3 -19 1 -15 -5 4 -6 -3
-8 -18 -5 -14 2 -25 0 -25 -6 0 -6 -9 -8 -20 -5 -11 3 -20 1 -20 -5 0 -5 -15
-12 -32 -14 -52 -7 -62 -12 -74 -33 -6 -11 -16 -19 -22 -17 -7 1 -11 -1 -10
-5 4 -13 -22 -54 -31 -49 -4 3 -8 -1 -8 -8 0 -19 -154 -216 -165 -210 -4 3 -8
2 -7 -3 4 -16 -16 -50 -74 -125 -33 -43 -63 -75 -68 -72 -5 3 -6 -1 -3 -9 3
-9 -4 -22 -17 -31 -19 -13 -20 -18 -9 -31 10 -12 39 -15 159 -15 172 0 219
-14 111 -34 -103 -18 -247 -52 -310 -72 -64 -20 -79 -30 -103 -64 -16 -22 -33
-37 -39 -34 -7 4 -8 2 -4 -4 5 -9 -67 -112 -93 -132 -4 -3 -44 -53 -90 -112
-46 -59 -88 -105 -94 -101 -6 3 -7 1 -3 -5 4 -6 -2 -20 -13 -31 -11 -11 -17
-21 -15 -24 2 -2 -2 -10 -11 -17 -8 -7 -15 -16 -15 -20 0 -14 73 -51 92 -47
10 3 18 0 18 -5 0 -6 12 -8 30 -4 17 3 30 1 30 -4 0 -6 21 -10 48 -11 l47 -1
-55 -14 c-50 -13 -143 -34 -245 -54 -22 -5 -41 -13 -43 -19 -2 -6 -8 -9 -13
-5 -5 3 -16 -2 -25 -10 -9 -9 -20 -14 -25 -10 -5 3 -8 1 -7 -4 5 -17 -112
-163 -124 -156 -7 4 -8 2 -4 -4 9 -15 -53 -94 -67 -85 -6 3 -7 1 -3 -5 9 -14
-83 -134 -97 -125 -6 3 -7 2 -4 -4 9 -14 -22 -55 -35 -47 -6 4 -8 3 -5 -3 9
-14 -22 -55 -35 -47 -7 4 -8 2 -4 -4 8 -13 -59 -104 -70 -94 -4 4 -4 1 0 -6 9
-16 -12 -44 -27 -35 -5 3 -7 1 -4 -4 7 -11 -50 -89 -62 -86 -4 1 -8 -3 -8 -10
0 -13 -86 -135 -125 -177 -12 -14 -22 -28 -20 -32 3 -13 -146 -197 -154 -190
-4 4 -4 1 0 -6 4 -7 -2 -25 -14 -42 l-21 -30 86 0 c67 0 87 3 91 15 4 8 10 12
15 9 5 -3 9 0 9 6 0 6 4 8 10 5 5 -3 8 0 5 7 -2 7 12 31 31 53 20 22 33 34 28
26 -5 -9 -3 -12 4 -7 7 4 12 13 12 21 0 8 8 20 18 27 9 7 33 33 52 58 53 70
103 119 113 113 6 -3 7 -1 4 4 -8 13 17 36 28 25 5 -4 5 -1 1 6 -9 15 12 44
25 36 5 -3 8 -2 7 3 -5 16 23 54 35 47 7 -4 9 -4 5 1 -10 11 86 104 103 101 8
-1 41 -12 73 -25 179 -68 351 -68 571 0 83 25 197 76 207 93 4 6 8 7 8 2 0 -6
7 -1 15 10 10 13 14 15 15 5 0 -9 9 -4 24 12 15 17 31 24 41 21 11 -4 14 -2
10 9 -4 8 1 17 10 21 11 4 14 2 8 -7 -4 -6 10 5 31 26 22 20 42 37 46 37 4 0
25 15 46 34 21 19 42 32 46 30 5 -3 8 2 8 10 0 15 13 21 35 16 5 -1 7 1 3 5
-9 10 93 116 105 108 6 -3 7 -1 4 4 -8 13 27 46 37 36 4 -5 6 -1 4 7 -2 8 3
14 10 12 8 -1 11 1 8 6 -3 5 9 25 27 44 18 19 52 58 76 86 24 29 47 49 52 46
5 -3 6 2 3 10 -4 10 -1 16 7 16 7 0 9 3 6 6 -4 4 16 35 43 70 28 35 50 67 50
71 0 4 9 17 21 29 11 12 31 41 44 65 13 24 28 43 34 42 6 -2 8 4 5 12 -4 8 -1
15 6 15 6 0 9 4 6 9 -3 5 1 14 9 21 8 7 15 19 15 27 0 7 7 16 15 19 8 4 13 10
10 14 -3 4 2 13 10 20 8 7 13 16 10 20 -3 4 2 13 10 20 8 7 15 19 15 26 0 8 5
14 10 14 6 0 10 7 10 15 0 8 5 15 11 15 5 0 7 4 4 10 -8 13 19 52 30 42 5 -4
5 -2 1 5 -3 6 -1 15 5 18 5 4 8 13 5 21 -3 8 1 17 9 20 7 3 12 11 9 19 -3 7 2
15 11 19 9 3 15 11 14 18 -2 21 12 58 23 58 5 0 6 4 3 10 -3 5 -1 10 5 10 6 0
8 5 5 10 -3 6 -1 10 5 10 6 0 8 5 5 11 -4 6 2 20 13 32 11 12 18 30 17 39 -2
9 5 25 14 35 10 10 17 26 15 36 -1 9 2 17 7 17 6 0 7 5 4 10 -3 6 -1 10 6 10
7 0 10 3 6 6 -3 4 2 23 13 44 11 21 16 40 13 44 -4 3 -1 6 6 6 7 0 9 5 6 10
-3 6 -1 10 6 10 7 0 10 3 6 6 -7 8 13 64 23 64 5 0 7 12 5 26 -1 14 3 31 9 37
12 14 19 33 20 60 0 9 4 17 9 17 4 0 5 5 2 10 -3 6 -2 10 4 10 5 0 9 8 9 18 0
9 6 35 14 57 8 22 13 46 10 54 -3 9 0 11 8 6 10 -6 12 -4 7 8 -3 9 0 34 8 56
7 22 11 42 8 45 -4 3 -1 6 6 6 8 0 11 8 8 20 -3 11 -1 20 3 20 5 0 8 8 8 18
-1 9 8 47 20 85 12 37 19 74 16 82 -4 8 -1 15 6 15 7 0 10 6 7 14 -3 8 1 36 9
62 8 27 12 54 10 61 -3 7 0 13 5 13 6 0 9 9 6 20 -3 11 -1 20 5 20 6 0 8 9 5
19 -2 11 2 47 9 81 8 33 12 65 9 70 -4 6 -1 10 6 10 7 0 9 10 7 25 -3 14 -2
25 2 25 5 0 8 23 8 50 1 28 3 54 6 58 7 11 21 127 21 174 0 20 3 34 7 32 3 -2
7 51 7 118 1 68 4 134 7 148 3 14 8 96 11 183 6 155 6 157 -15 157 -12 0 -35
-13 -52 -30z"/>
</g>
</svg>
